<svg width="40" height="48" viewBox="0 0 40 48" fill="none" xmlns="http://www.w3.org/2000/svg">
<g filter="url(#filter0_d_128_595)">
<path d="M26.0099 20.99L23.0099 17.99M11.4999 32.5C12.3299 33.33 13.6699 33.33 14.4999 32.5L27.4999 19.5C28.3299 18.67 28.3299 17.33 27.4999 16.5C26.6699 15.67 25.3299 15.67 24.4999 16.5L11.4999 29.5C10.6699 30.33 10.6699 31.67 11.4999 32.5Z" stroke="#8799AF" stroke-width="1.5" stroke-linecap="round" stroke-linejoin="round"/>
<path d="M16.5 14.44L18 14L17.56 15.5L18 17L16.5 16.56L15 17L15.44 15.5L15 14L16.5 14.44ZM12.5 20.44L14 20L13.56 21.5L14 23L12.5 22.56L11 23L11.44 21.5L11 20L12.5 20.44ZM27.5 25.44L29 25L28.56 26.5L29 28L27.5 27.56L26 28L26.44 26.5L26 25L27.5 25.44Z" stroke="#8799AF" stroke-linecap="round" stroke-linejoin="round"/>
</g>
<defs>
<filter id="filter0_d_128_595" x="-6" y="-4" width="52" height="60" filterUnits="userSpaceOnUse" color-interpolation-filters="sRGB">
<feFlood flood-opacity="0" result="BackgroundImageFix"/>
<feColorMatrix in="SourceAlpha" type="matrix" values="0 0 0 0 0 0 0 0 0 0 0 0 0 0 0 0 0 0 127 0" result="hardAlpha"/>
<feOffset dy="2"/>
<feGaussianBlur stdDeviation="3"/>
<feComposite in2="hardAlpha" operator="out"/>
<feColorMatrix type="matrix" values="0 0 0 0 0 0 0 0 0 0 0 0 0 0 0 0 0 0 0.03 0"/>
<feBlend mode="normal" in2="BackgroundImageFix" result="effect1_dropShadow_128_595"/>
<feBlend mode="normal" in="SourceGraphic" in2="effect1_dropShadow_128_595" result="shape"/>
</filter>
</defs>
</svg>
