<svg width="12" height="12" viewBox="0 0 12 12" fill="none" xmlns="http://www.w3.org/2000/svg">
<path d="M6 3.65991V6.44991L7.4 7.84991" stroke="#B1B5B9" stroke-width="1.5" stroke-linecap="round" stroke-linejoin="round"/>
<path d="M1.00001 6C1.00001 4.67392 1.52679 3.40215 2.46447 2.46447C3.40215 1.52678 4.67392 1 6.00001 1C7.32609 1 8.59786 1.52678 9.53554 2.46447C10.4732 3.40215 11 4.67392 11 6C11 7.6 10.2462 9.03077 9.07693 9.94615H9.06924C8.22308 10.6077 7.16154 11 6.00001 11C4.85385 11 3.80001 10.6154 2.95385 9.96154H2.94616C2.33964 9.49472 1.84866 8.89463 1.51119 8.20768C1.17372 7.52074 0.998811 6.76536 1.00001 6Z" stroke="#B1B5B9" stroke-width="1.5" stroke-linecap="round" stroke-linejoin="round"/>
</svg>
