<svg width="10" height="14" viewBox="0 0 10 14" fill="none" xmlns="http://www.w3.org/2000/svg">
<path d="M1.65256 7.72002H3.39256V11.77C3.39256 12.37 4.13256 12.65 4.53256 12.2L8.79256 7.36002C8.87547 7.26604 8.92944 7.1501 8.94797 7.02616C8.96651 6.90223 8.94883 6.77557 8.89705 6.66145C8.84527 6.54733 8.76161 6.45061 8.65614 6.38294C8.55067 6.31526 8.42788 6.27952 8.30256 6.28002H6.56256V2.23002C6.56256 1.63002 5.82256 1.35002 5.42256 1.80002L1.16256 6.64002C1.07966 6.73399 1.02569 6.84993 1.00715 6.97387C0.988614 7.09781 1.0063 7.22446 1.05808 7.33858C1.10985 7.4527 1.19351 7.54942 1.29899 7.61709C1.40446 7.68477 1.52725 7.72051 1.65256 7.72002Z" stroke="#B1B5B9" stroke-width="1.5" stroke-miterlimit="10" stroke-linecap="round" stroke-linejoin="round"/>
</svg>
