<svg width="40" height="48" viewBox="0 0 40 48" fill="none" xmlns="http://www.w3.org/2000/svg">
<g filter="url(#filter0_d_110_579)">
<path d="M28.6577 21.6586L21.4624 17.5049C20.5424 16.9741 19.6032 16.9072 18.8847 17.3218C18.2732 17.6749 17.8848 18.3425 17.7825 19.1887L14.8656 17.5049C13.9456 16.9741 13.0064 16.9072 12.2879 17.3218C11.5695 17.7364 11.158 18.5833 11.158 19.6456V27.9539C11.158 29.0162 11.5695 29.8631 12.2879 30.2777C12.5995 30.4577 12.9533 30.5469 13.3287 30.5469C13.8179 30.5469 14.3448 30.3954 14.8656 30.0946L17.7825 28.4108C17.8848 29.257 18.2732 29.9246 18.8847 30.2777C19.1963 30.4577 19.5501 30.5469 19.9255 30.5469C20.4147 30.5469 20.9416 30.3954 21.4624 30.0946L28.6577 25.9409C29.5776 25.4101 30.1053 24.6293 30.1053 23.8001C30.1053 22.9709 29.5776 22.1902 28.6577 21.6586ZM19.5755 18.5179C19.8547 18.3564 20.2909 18.4233 20.7716 18.701L23.007 19.9917L19.1363 22.2263V19.6448C19.1363 19.0894 19.2963 18.6795 19.5755 18.5179ZM12.5395 19.6456C12.5395 19.0902 12.6995 18.6795 12.9787 18.5179C13.2579 18.3564 13.6941 18.4233 14.1748 18.701L17.754 20.7679V23.024L14.1748 25.0909C13.6941 25.3686 13.2579 25.4355 12.9787 25.274C12.6995 25.1124 12.5395 24.7017 12.5395 24.1463V19.6456ZM27.9661 24.744L20.7709 28.8977C20.2901 29.1754 19.854 29.2423 19.5747 29.0808C19.2955 28.9193 19.1355 28.5085 19.1355 27.9531V27.6285L27.6846 22.6925L27.9661 22.8548C28.4469 23.1325 28.723 23.4763 28.723 23.7994C28.723 24.1224 28.4469 24.4663 27.9661 24.744Z" fill="url(#paint0_linear_110_579)"/>
</g>
<defs>
<filter id="filter0_d_110_579" x="-6" y="-4" width="52" height="60" filterUnits="userSpaceOnUse" color-interpolation-filters="sRGB">
<feFlood flood-opacity="0" result="BackgroundImageFix"/>
<feColorMatrix in="SourceAlpha" type="matrix" values="0 0 0 0 0 0 0 0 0 0 0 0 0 0 0 0 0 0 127 0" result="hardAlpha"/>
<feOffset dy="2"/>
<feGaussianBlur stdDeviation="3"/>
<feComposite in2="hardAlpha" operator="out"/>
<feColorMatrix type="matrix" values="0 0 0 0 0 0 0 0 0 0 0 0 0 0 0 0 0 0 0.03 0"/>
<feBlend mode="normal" in2="BackgroundImageFix" result="effect1_dropShadow_110_579"/>
<feBlend mode="normal" in="SourceGraphic" in2="effect1_dropShadow_110_579" result="shape"/>
</filter>
<linearGradient id="paint0_linear_110_579" x1="24.0342" y1="30.5469" x2="13.4623" y2="23.2652" gradientUnits="userSpaceOnUse">
<stop stop-color="#8550DA"/>
<stop offset="1" stop-color="#5056DA"/>
</linearGradient>
</defs>
</svg>
