<svg width="24" height="24" viewBox="0 0 24 24" fill="none" xmlns="http://www.w3.org/2000/svg">
<path d="M10.28 20.25H17C19.76 20.25 22 18.01 22 15.25V8.75C22 5.99 19.76 3.75 17 3.75H10.28C8.87003 3.75 7.53003 4.34 6.58003 5.39L3.05003 9.27C2.36975 10.0165 1.99268 10.99 1.99268 12C1.99268 13.01 2.36975 13.9835 3.05003 14.73L6.58003 18.61C7.04753 19.1272 7.61846 19.5405 8.25584 19.823C8.89322 20.1055 9.58284 20.251 10.28 20.25Z" stroke="#8799AF" stroke-width="1.5" stroke-linecap="round" stroke-linejoin="round"/>
<path d="M16.0001 14.47L11.0601 9.53003M11.0601 14.47L16.0001 9.53003" stroke="#8799AF" stroke-width="1.5" stroke-linecap="round"/>
</svg>
